<?xml version="1.0"?>
<svg xmlns="http://www.w3.org/2000/svg" viewBox="0 0 26 26" enable-background="new 0 0 26 26">
    <path style="text-indent:0;text-align:start;line-height:normal;text-transform:none;block-progression:tb;-inkscape-font-specification:Bitstream Vera Sans" d="M 17 1 C 12.296154 1 8.1077995 2.0785429 5.03125 4.09375 C 1.9547005 6.1089571 0 9.1640152 0 12.8125 C 0 12.877184 -0.0014066437 12.935953 0 13 L 0 16.8125 C 0 21.8125 3.99375 25 10.09375 25 C 15.39375 25 18 22.3 18 17 C 18 15.5 19.30625 14.90625 21.40625 13.90625 C 23.40625 13.00625 26 11.9 26 9 L 26 5 C 26 4.1013889 25.531169 3.2838288 24.90625 2.75 C 24.281331 2.2161712 23.50844 1.8744215 22.65625 1.625 C 20.95187 1.126157 18.904054 1 17 1 z M 17 3 C 18.795946 3 20.72313 3.161343 22.09375 3.5625 C 22.77906 3.7630785 23.328044 4.0275788 23.625 4.28125 C 23.921956 4.5349212 24 4.6986111 24 5 C 24 5.7969697 23.721665 6.2064391 23.125 6.6875 C 22.528335 7.1685609 21.595341 7.618044 20.59375 8.0625 C 19.592159 8.506956 18.52889 8.9436742 17.625 9.6875 C 16.72111 10.431326 16 11.578704 16 13 C 16 14.688889 15.710262 16.217688 14.90625 17.25 C 14.102238 18.282312 12.74492 19 10.09375 19 C 7.75375 19 5.6746225 18.442339 4.25 17.40625 C 2.8253775 16.370161 2 14.927778 2 12.8125 C 2 9.8609848 3.4765495 7.4847929 6.125 5.75 C 8.7734505 4.0152071 12.603846 3 17 3 z M 13.5625 6.8125 C 13.401367 6.8095703 12.9 7.0125 11.8125 7.5 C 5.8125 10.1 6.09375 14.0125 4.59375 11.3125 C 4.29375 10.8125 4 10.49375 4 11.09375 C 3.9 12.29375 4.1875 13.9125 5.6875 15.3125 C 6.7875 16.4125 8.7125 16.90625 10.3125 16.90625 C 11.9125 16.90625 11.99375 16.8 10.59375 16 C 7.89375 14.6 7.8 12.6 12.5 8 C 13.125 7.375 13.831055 6.8173828 13.5625 6.8125 z" overflow="visible" enable-background="accumulate" font-family="Bitstream Vera Sans"/>
</svg>
