<?xml version="1.0" encoding="iso-8859-1"?>
<!-- Generator: Adobe Illustrator 21.0.2, SVG Export Plug-In . SVG Version: 6.00 Build 0)  -->
<svg xmlns="http://www.w3.org/2000/svg" xmlns:xlink="http://www.w3.org/1999/xlink" version="1.1" id="Layer_1" x="0px" y="0px" viewBox="0 0 40 40" style="enable-background:new 0 0 40 40;" xml:space="preserve">
<g>
	<path style="fill:#B6DCFE;" d="M6,15.5c-2.092,0-3.925-1.024-4.388-2.028c1.469-0.137,2.396-0.758,3.295-1.361   C6.088,11.319,7.31,10.5,10,10.5c0.886,0,1.512,0.213,1.632,0.555c0.108,0.309-0.142,0.91-0.945,1.555L10.5,12.76V13   C10.5,14.125,8.424,15.5,6,15.5z"/>
	<path style="fill:#4788C7;" d="M10,11c0.799,0,1.121,0.179,1.157,0.207c0.006,0.071-0.113,0.475-0.783,1.014L10,12.521V13   c0,0.685-1.689,2-4,2c-1.535,0-2.795-0.58-3.469-1.17c1.102-0.262,1.888-0.789,2.655-1.303C6.356,11.741,7.462,11,10,11 M10,10   c-5.229,0-5.313,3-9,3c0,1.499,2.377,3,5,3s5-1.501,5-3C12.725,11.615,12.623,10,10,10L10,10z"/>
</g>
<g>
	<path style="fill:#98CCFD;" d="M14.5,12.447c-6.604-0.72-11-3.28-11-6.447c0-1.235,0.769-2.469,2.198-3.568   C5.51,3.19,5.5,3.871,5.5,4c0,2.738,3.353,4.404,9,4.496V12.447z"/>
	<path style="fill:#4788C7;" d="M5.006,3.737C5.001,3.852,5,3.942,5,4c0,2.96,3.342,4.793,9,4.983v2.901C8.058,11.122,4,8.768,4,6   C4,5.241,4.347,4.473,5.006,3.737 M7,1C4.568,2.328,3,4.058,3,6c0,3.658,5.053,6.361,12,7V8C9.753,8,6,6.623,6,4   C6,3.157,6.23,1.686,7,1L7,1z"/>
</g>
<g>
	<path style="fill:#B6DCFE;" d="M34,15.5c-2.424,0-4.5-1.375-4.5-2.5v-0.24l-0.187-0.15c-0.804-0.646-1.054-1.246-0.945-1.555   C28.488,10.713,29.114,10.5,30,10.5c2.69,0,3.912,0.819,5.093,1.611c0.899,0.603,1.826,1.225,3.295,1.361   C37.925,14.476,36.092,15.5,34,15.5z"/>
	<path style="fill:#4788C7;" d="M30,11c2.538,0,3.644,0.741,4.814,1.526c0.767,0.514,1.553,1.041,2.655,1.303   C36.795,14.42,35.535,15,34,15c-2.311,0-4-1.315-4-2v-0.479l-0.374-0.3c-0.67-0.538-0.789-0.942-0.797-0.979   C28.879,11.179,29.201,11,30,11 M30,10c-2.623,0-2.725,1.615-1,3c0,1.499,2.377,3,5,3s5-1.501,5-3C35.312,13,35.229,10,30,10L30,10   z"/>
</g>
<g>
	<path style="fill:#98CCFD;" d="M25.5,8.496c5.647-0.092,9-1.758,9-4.496c0-0.129-0.01-0.81-0.198-1.568   C35.731,3.531,36.5,4.765,36.5,6c0,3.167-4.396,5.728-11,6.447V8.496z"/>
	<path style="fill:#4788C7;" d="M34.994,3.737C35.653,4.473,36,5.241,36,6c0,2.768-4.058,5.122-10,5.884V8.983   C31.658,8.793,35,6.96,35,4C35,3.942,34.999,3.852,34.994,3.737 M33,1c0.77,0.686,1,2.157,1,3c0,2.623-3.753,4-9,4v5   c6.947-0.639,12-3.342,12-7C37,4.058,35.432,2.328,33,1L33,1z"/>
</g>
<g>
	<path style="fill:#DFF0FE;" d="M20,34.5c-2.595,0-5.126-1.049-6.505-2.684c-0.06-2.015-0.293-4.636-1.055-6.053   c-1.284-2.407-2.545-4.529-4.87-6.001C9.913,10.057,14.433,4.5,20,4.5s10.087,5.557,12.43,15.262   c-2.325,1.473-3.586,3.594-4.871,6.003c-0.761,1.415-0.994,4.037-1.054,6.051C25.126,33.451,22.595,34.5,20,34.5z"/>
	<path style="fill:#4788C7;" d="M20,5c5.253,0,9.555,5.287,11.86,14.538c-2.234,1.522-3.479,3.622-4.741,5.989   c-0.785,1.46-1.039,4.052-1.109,6.095C24.701,33.075,22.384,34,20,34s-4.701-0.925-6.011-2.378   c-0.069-2.043-0.323-4.635-1.107-6.092c-1.263-2.369-2.508-4.469-4.742-5.992C10.445,10.287,14.747,5,20,5 M20,4   C13.825,4,9.266,10.296,7,20c2.511,1.466,3.806,3.761,5,6c0.774,1.439,0.959,4.358,1,6c1.452,1.832,4.164,3,7,3s5.548-1.168,7-3   c0.041-1.642,0.226-4.561,1-6c1.194-2.239,2.489-4.534,5-6C30.734,10.296,26.175,4,20,4L20,4z"/>
</g>
<path style="fill:#4788C7;" d="M24.465,21c1.933,0,3.5-1.567,3.5-3.5c0-0.163,0-0.297,0-0.5L22,19.983  C22.633,20.611,23.503,21,24.465,21z"/>
<path style="fill:#4788C7;" d="M15.535,21c-1.933,0-3.5-1.567-3.5-3.5c0-0.163,0-0.297,0-0.5L18,19.983  C17.367,20.611,16.497,21,15.535,21z"/>
<circle style="fill:#98CCFD;" cx="22.5" cy="30.5" r="1.5"/>
<circle style="fill:#98CCFD;" cx="17.5" cy="30.5" r="1.5"/>
<path style="fill:#4788C7;" d="M25,34.73c0,2.36-2.24,4.27-5,4.27s-5-1.91-5-4.27c0-1.22,0.6-2.31,1.55-3.08  c0.67-0.55,1.51-0.94,2.44-1.1c-0.01,0.57-0.34,1.05-0.82,1.28c-0.05,0.02-0.1,0.04-0.15,0.07C16.81,32.46,16,33.52,16,34.73  c0,1.8,1.79,3.27,4,3.27s4-1.47,4-3.27c0-1.21-0.81-2.27-2.02-2.83c-0.05-0.03-0.1-0.05-0.15-0.07c-0.48-0.23-0.81-0.71-0.82-1.28  c0.93,0.16,1.77,0.55,2.44,1.1C24.4,32.42,25,33.51,25,34.73z"/>
</svg>
