<?xml version="1.0"?>
<svg xmlns="http://www.w3.org/2000/svg" viewBox="0 0 24 24">
    <path d="M 4 2 L 4 4 C 4 4.731 4.266 5.358 5 6 C 5.58 6.507 6.45375 7.085 7.71875 7.375 C 7.7769167 7.3812917 7.8439497 7.3775872 7.90625 7.375 C 7.7270883 7.488354 7.5665705 7.6210432 7.40625 7.75 C 6.7707917 7.3883226 5.8847467 7.0087142 5 7 C 3.25 6.984 2 7.603 2 8 C 2 8.514 3.272 9.992 5 10 C 5.4554 10.00216 5.8271848 9.8715664 6.15625 9.71875 C 6.0647788 10.0951 6 10.508903 6 11 C 6 12.962 7.07775 14.148 7.71875 15 C 8.36275 15.855 8.40625 16.372 8.40625 17 C 8.40625 17.938 8 18.169 8 20 C 8 21.318 9.856 22 12 22 C 14.144 22 16 21.432 16 20 C 16 18.169 15.625 17.854 15.625 17 C 15.625 16.372 15.63725 15.854 16.28125 15 C 16.92225 14.148 18 12.962 18 11 C 18 10.506932 17.961117 10.091855 17.875 9.71875 C 18.195375 9.8679064 18.55105 10.002129 19 10 C 20.728 9.992 22 8.514 22 8 C 21.922 7.609 20.75 6.984 19 7 C 18.115253 7.0087142 17.250091 7.3883226 16.625 7.75 C 16.452631 7.6126605 16.257181 7.4948708 16.0625 7.375 C 16.15897 7.3851184 16.22525 7.3844375 16.3125 7.375 C 17.5975 7.08 18.451 6.466 19 6 C 19.756 5.359 19.959 4.794 20 4 C 20.035 3.332 20 2.645 20 2 C 19.583 3.979 18.71 5 17 5 L 13.65625 5 C 13.37057 4.4308423 13.071804 4 12 4 C 10.978623 4 10.672928 4.4297269 10.375 5 L 7 5 C 5.29 5 4.5 4.021 4 2 z M 11 8 C 11.264 7.973 12.739 7.974 13 8 C 14.208 8.119 14.7925 8.534 15.4375 9 C 15.9655 9.383 15.6135 11.711 15.4375 12 C 15.1155 12.529 13 13.082 13 15 C 13 17.011 14.5625 16.235 14.5625 19 C 14.3665 18.584 13.95075 18.729 13.71875 19 C 13.43675 19.329 13.48075 19.92 13.71875 20 C 13.40575 20.235 12.413 20.34375 12 20.34375 C 11.587 20.34375 10.76525 20.271 10.28125 20 C 10.51925 19.92 10.62925 19.406 10.28125 19 C 10.06425 18.747 9.6325 18.584 9.4375 19 C 9.4375 16.282 11 16.967 11 15 C 11 13.059 8.8855 12.529 8.5625 12 C 8.3845 11.711 8.0355 9.383 8.5625 9 C 9.2025 8.537 9.829 8.122 11 8 z"/>
</svg>
