<?xml version="1.0"?>
<svg xmlns="http://www.w3.org/2000/svg" viewBox="0 0 64 64">
    <path d="M 26 2 C 23.797 2 20.649406 2.6888594 18.691406 4.0058594 C 14.969406 4.1428594 12.420859 6.7573906 12.005859 10.900391 C 11.749859 13.459391 11.982719 15.291906 12.136719 16.503906 C 12.190719 16.924906 12.251469 17.401969 12.230469 17.542969 C 12.197469 17.728969 12.167578 17.916469 12.142578 18.105469 C 11.976578 18.111469 11.831078 18.137875 11.705078 18.171875 C 10.054078 18.614875 9.3635625 21.024344 10.101562 23.777344 C 10.636563 25.775344 11.758375 27.274375 12.984375 27.734375 C 13.618375 29.672375 14.545125 31.599031 15.703125 33.332031 L 6.4863281 38.669922 C 2.4853281 40.985922 1.1842379e-15 45.294969 0 49.917969 L 0 53 L 0 55 L 0 57 C 0 58.654 1.346 60 3 60 L 41.640625 60 C 44.007625 62.46 47.325 64 51 64 C 58.168 64 64 58.168 64 51 C 64 45.311 60.321656 40.47775 55.222656 38.71875 L 46.53125 33.095703 C 47.82125 31.557703 48.896125 29.648422 49.578125 27.607422 C 50.529125 27.195422 51.361484 26.061344 51.771484 24.527344 C 52.017484 23.610344 52.065203 22.684969 51.908203 21.917969 C 51.705203 20.924969 51.153531 20.238156 50.394531 20.035156 C 50.344531 20.021156 50.290469 20.009 50.230469 20 C 50.128469 19.344 49.956641 18.702969 49.681641 17.917969 C 49.861641 17.963969 50.057562 18.025703 50.226562 18.095703 C 50.567563 18.237703 50.964953 18.178453 51.251953 17.939453 C 51.537953 17.700453 51.667891 17.321031 51.587891 16.957031 C 50.357891 11.328031 46.179063 7.96875 40.414062 7.96875 L 39.669922 7.96875 C 39.518922 7.96875 39.352406 7.9812344 39.191406 7.9902344 C 36.552406 4.1642344 32.29 2 27 2 L 26 2 z M 26 4 L 27 4 C 33.07 4 37.454 7.1020312 39.25 12.582031 C 38.56 12.505031 37.844516 12.588547 37.353516 13.060547 C 36.971516 13.427547 36.611406 14.124375 37.066406 15.359375 C 37.684406 17.036375 37.90275 18.026594 37.96875 19.433594 C 37.98575 19.791594 38.193719 20.111391 38.511719 20.275391 C 38.829719 20.439391 39.211719 20.419609 39.511719 20.224609 C 39.675719 20.118609 39.76325 20.105516 39.78125 20.103516 C 40.02325 20.186516 40.460844 21.404766 39.964844 23.259766 C 39.470844 25.102766 38.527375 25.880859 38.234375 25.880859 C 37.790375 25.867859 37.401391 26.171703 37.275391 26.595703 C 35.591391 32.262703 31.178 38 26 38 C 20.822 38 16.408609 32.262703 14.724609 26.595703 C 14.598609 26.171703 14.209578 25.880859 13.767578 25.880859 L 13.765625 25.880859 C 13.472625 25.880859 12.528156 25.101766 12.035156 23.259766 C 11.534156 21.389766 11.983844 20.166516 12.214844 20.103516 C 12.216844 20.103516 12.303328 20.104609 12.486328 20.224609 C 12.787328 20.418609 13.170281 20.438391 13.488281 20.275391 C 13.807281 20.111391 14.013297 19.791594 14.029297 19.433594 C 14.053297 18.911594 14.111219 18.391672 14.199219 17.888672 C 14.274219 17.461672 14.214094 16.980953 14.121094 16.251953 C 13.978094 15.129953 13.761141 13.433563 13.994141 11.101562 C 14.313141 7.9085625 16.184578 6.0019531 19.017578 6.0019531 C 19.233578 6.0019531 19.443188 5.9307812 19.617188 5.8007812 C 20.987187 4.7737813 23.731 4 26 4 z M 40.347656 9.9667969 L 40.416016 9.9667969 C 44.690016 9.9667969 47.814453 12.08675 49.189453 15.84375 C 48.738453 15.84975 48.296891 15.965156 47.962891 16.285156 C 47.622891 16.611156 47.298547 17.221484 47.685547 18.271484 C 48.136547 19.494484 48.29675 20.215375 48.34375 21.234375 C 48.36075 21.592375 48.566766 21.912172 48.884766 22.076172 C 49.197766 22.235172 49.571188 22.220109 49.867188 22.037109 C 49.991188 22.318109 50.100844 23.036766 49.839844 24.009766 C 49.532844 25.156766 48.956922 25.732344 48.794922 25.777344 L 48.792969 25.777344 C 48.350969 25.777344 47.960938 26.068187 47.835938 26.492188 C 46.999938 29.306188 45.336672 31.887484 43.388672 33.396484 C 42.951672 33.734484 42.871938 34.361828 43.210938 34.798828 C 43.407938 35.052828 43.703953 35.1875 44.001953 35.1875 C 44.215953 35.1875 44.431281 35.119516 44.613281 34.978516 C 44.781281 34.848516 44.943422 34.699641 45.107422 34.556641 L 50.472656 38.027344 C 48.895656 38.091344 47.388906 38.422953 46.003906 39.001953 C 45.836906 38.894953 45.685672 38.769922 45.513672 38.669922 L 36.294922 33.332031 C 37.452922 31.599031 38.380672 29.671375 39.013672 27.734375 C 40.239672 27.274375 41.361484 25.776344 41.896484 23.777344 C 42.634484 21.024344 41.945922 18.614875 40.294922 18.171875 C 40.170922 18.138875 40.025328 18.111469 39.861328 18.105469 C 39.721328 17.034469 39.447359 16.036969 38.943359 14.667969 C 38.928359 14.627969 38.91625 14.593547 38.90625 14.560547 C 39.25925 14.589547 39.825109 14.732828 40.287109 14.923828 C 40.631109 15.065828 41.025547 15.006578 41.310547 14.767578 C 41.596547 14.528578 41.726484 14.150109 41.646484 13.787109 C 41.344484 12.406109 40.907656 11.129797 40.347656 9.9667969 z M 20.527344 10.125 C 19.813719 10.0635 19.094891 10.388625 18.681641 11.015625 L 17.078125 13.449219 C 16.774125 13.910219 16.902281 14.531937 17.363281 14.835938 C 17.533281 14.947938 17.723109 15 17.912109 15 C 18.237109 15 18.556047 14.842781 18.748047 14.550781 L 20.351562 12.117188 L 21.914062 12.878906 C 24.763063 14.266906 27.945281 15 31.113281 15 L 33.667969 15 C 34.219969 15 34.667969 14.552 34.667969 14 C 34.667969 13.448 34.219969 13 33.667969 13 L 31.113281 13 C 28.247281 13 25.369016 12.335078 22.791016 11.080078 L 21.228516 10.318359 C 21.003266 10.208859 20.765219 10.1455 20.527344 10.125 z M 16.908203 34.943359 C 19.341203 37.911359 22.504 40 26 40 C 29.496 40 32.658797 37.912312 35.091797 34.945312 L 43.966797 40.083984 C 40.382797 42.400984 38 46.424 38 51 C 38 53.578 38.7625 55.977 40.0625 58 L 3 58 C 2.449 58 2 57.551 2 57 L 2 55 L 2 53 L 2 49.917969 C 2 46.005969 4.1022813 42.358437 7.4882812 40.398438 L 16.908203 34.943359 z M 51 40 C 57.065 40 62 44.935 62 51 C 62 57.065 57.065 62 51 62 C 44.935 62 40 57.065 40 51 C 40 44.935 44.935 40 51 40 z M 18.0625 40.001953 C 17.673344 39.977156 17.290719 40.182234 17.105469 40.552734 C 16.858469 41.046734 17.058734 41.647531 17.552734 41.894531 L 25.552734 45.894531 C 25.693734 45.964531 25.847 46 26 46 C 26.153 46 26.307266 45.964531 26.447266 45.894531 L 34.447266 41.894531 C 34.941266 41.647531 35.141531 41.046734 34.894531 40.552734 C 34.648531 40.058734 34.047734 39.858469 33.552734 40.105469 L 26 43.882812 L 18.447266 40.105469 C 18.323516 40.043719 18.192219 40.010219 18.0625 40.001953 z M 51 42 C 50.448 42 50 42.448 50 43 L 50 44 C 47.794 44 46 45.794 46 48 C 46 50.206 47.794 52 50 52 L 52 52 C 53.103 52 54 52.897 54 54 C 54 55.103 53.103 56 52 56 L 52 54 C 52 53.448 51.552 53 51 53 C 50.448 53 50 53.448 50 54 L 50 56 C 48.897 56 48 55.103 48 54 C 48 53.448 47.552 53 47 53 C 46.448 53 46 53.448 46 54 C 46 56.206 47.794 58 50 58 L 50 59 C 50 59.552 50.448 60 51 60 C 51.552 60 52 59.552 52 59 L 52 58 C 54.206 58 56 56.206 56 54 C 56 51.794 54.206 50 52 50 L 52 48 C 52 47.448 51.552 47 51 47 C 50.448 47 50 47.448 50 48 L 50 50 C 48.897 50 48 49.103 48 48 C 48 46.897 48.897 46 50 46 L 52 46 C 53.103 46 54 46.897 54 48 C 54 48.552 54.448 49 55 49 C 55.552 49 56 48.552 56 48 C 56 45.794 54.206 44 52 44 L 52 43 C 52 42.448 51.552 42 51 42 z M 6 52 C 5.448 52 5 52.448 5 53 L 5 55 C 5 55.552 5.448 56 6 56 C 6.552 56 7 55.552 7 55 L 7 53 C 7 52.448 6.552 52 6 52 z M 11 52 C 10.448 52 10 52.448 10 53 L 10 55 C 10 55.552 10.448 56 11 56 C 11.552 56 12 55.552 12 55 L 12 53 C 12 52.448 11.552 52 11 52 z M 16 52 C 15.448 52 15 52.448 15 53 L 15 55 C 15 55.552 15.448 56 16 56 C 16.552 56 17 55.552 17 55 L 17 53 C 17 52.448 16.552 52 16 52 z M 21 52 C 20.448 52 20 52.448 20 53 L 20 55 C 20 55.552 20.448 56 21 56 C 21.552 56 22 55.552 22 55 L 22 53 C 22 52.448 21.552 52 21 52 z M 26 52 C 25.448 52 25 52.448 25 53 L 25 55 C 25 55.552 25.448 56 26 56 C 26.552 56 27 55.552 27 55 L 27 53 C 27 52.448 26.552 52 26 52 z M 31 52 C 30.448 52 30 52.448 30 53 L 30 55 C 30 55.552 30.448 56 31 56 C 31.552 56 32 55.552 32 55 L 32 53 C 32 52.448 31.552 52 31 52 z M 36 52 C 35.448 52 35 52.448 35 53 L 35 55 C 35 55.552 35.448 56 36 56 C 36.552 56 37 55.552 37 55 L 37 53 C 37 52.448 36.552 52 36 52 z"/>
</svg>
