<?xml version="1.0"?>
<svg xmlns="http://www.w3.org/2000/svg" viewBox="0 0 50 50" enable-background="new 0 0 50 50">
    <path style="text-indent:0;text-align:start;line-height:normal;text-transform:none;block-progression:tb;-inkscape-font-specification:Bitstream Vera Sans" d="M 24.875 2 A 1.0001 1.0001 0 0 0 24.625 2.0625 L 6.625 9.0625 A 1.0001 1.0001 0 0 0 6.09375 9.59375 L 0.09375 22.59375 A 1.0001 1.0001 0 0 0 1 24 L 3 24 L 3 47 A 1.0001 1.0001 0 0 0 4 48 L 46 48 A 1.0001 1.0001 0 0 0 47 47 L 47 24 L 49 24 A 1.0001 1.0001 0 0 0 49.90625 22.59375 L 43.90625 9.59375 A 1.0001 1.0001 0 0 0 43.375 9.0625 L 25.375 2.0625 A 1.0001 1.0001 0 0 0 24.875 2 z M 25 4.09375 L 42.28125 10.8125 L 47.4375 22 L 46 22 A 1.0001 1.0001 0 0 0 45 23 L 45 46 L 5 46 L 5 23 A 1.0001 1.0001 0 0 0 4 22 L 2.5625 22 L 7.71875 10.8125 L 25 4.09375 z M 20.8125 11 A 1.0001 1.0001 0 0 0 20 12 L 20 20 A 1.0001 1.0001 0 0 0 21 21 L 29 21 A 1.0001 1.0001 0 0 0 30 20 L 30 12 A 1.0001 1.0001 0 0 0 29 11 L 21 11 A 1.0001 1.0001 0 0 0 20.90625 11 A 1.0001 1.0001 0 0 0 20.8125 11 z M 22 13 L 28 13 L 28 19 L 22 19 L 22 13 z M 13.8125 27 A 1.0001 1.0001 0 0 0 13 28 L 13 43 A 1.0001 1.0001 0 0 0 14 44 L 36 44 A 1.0001 1.0001 0 0 0 37 43 L 37 28 A 1.0001 1.0001 0 0 0 36 27 L 14 27 A 1.0001 1.0001 0 0 0 13.90625 27 A 1.0001 1.0001 0 0 0 13.8125 27 z M 17.21875 29 L 32.78125 29 L 25 34.3125 L 17.21875 29 z M 15 29.875 L 23.25 35.5 L 15 41.125 L 15 29.875 z M 35 29.875 L 35 41.125 L 26.75 35.5 L 35 29.875 z M 25 36.6875 L 32.78125 42 L 17.21875 42 L 25 36.6875 z" overflow="visible" enable-background="accumulate" font-family="Bitstream Vera Sans"/>
</svg>
