<?xml version="1.0"?>
<svg xmlns="http://www.w3.org/2000/svg" viewBox="0 0 24 24">
    <path d="M 7 2 C 7.4818207 2.9597241 7.8967351 4.0909681 8.21875 5.28125 C 7.3291499 4.501957 6.2481691 4 5 4 C 6.211 5.211 7.156 6.35875 7.8125 7.5 C 6.2597407 6.6552089 4.1936826 6.8063174 3 8 C 5.188 8 7.84375 9 7.84375 11 L 7 11 L 7 12 L 17 12 L 17 11 L 16.15625 11 C 16.15625 8.771 18.812 8 21 8 C 19.789889 6.7898887 17.684192 6.7251544 16.125 7.625 C 16.782485 6.4414468 17.744488 5.2555124 19 4 C 17.680071 4 16.541212 4.5494695 15.625 5.40625 C 15.927778 4.2810623 16.366711 3.1595165 17 2 C 15.470197 2.7381271 14.392425 3.7467503 13.65625 4.90625 C 13.69698 3.9160737 13.802931 2.9140814 14 2 C 13.094749 2.9052511 12.474452 4.010113 12.03125 5.125 C 11.581891 4.033822 10.939521 2.9395208 10 2 C 10.249083 2.9662917 10.352946 4.1423075 10.375 5.3125 C 9.5614154 3.7851985 8.4279431 2.5054993 7 2 z M 7 13 L 7 14 L 7.84375 14 C 7.1024281 15.105037 5.4667082 16 4 16 L 4 18 C 4.8197708 18 5.6404719 17.818649 6.40625 17.53125 L 5.15625 19.4375 L 6.84375 20.5625 L 8.8125 17.625 L 7.71875 21.125 L 9.625 21.71875 L 11 17.375 L 11 22 L 13 22 L 13 17.375 L 14.375 21.71875 L 16.28125 21.125 L 15.1875 17.625 L 17.15625 20.5625 L 18.84375 19.4375 L 17.59375 17.53125 C 18.359541 17.818638 19.180229 18 20 18 L 20 16 C 18.533291 16 16.896984 15.104604 16.15625 14 L 17 14 L 17 13 L 16 13 L 8 13 L 7 13 z"/>
</svg>
