<?xml version="1.0"?>
<svg xmlns="http://www.w3.org/2000/svg" viewBox="0 0 64 64">
    <path d="M 18.443359 6.0078125 C 14.203609 6.0078125 9.9638281 7.6221094 6.7363281 10.849609 C 3.6093281 13.976609 1.8867187 18.134641 1.8867188 22.556641 C 1.8867188 26.979641 3.6093281 31.136672 6.7363281 34.263672 L 26.455078 53.982422 C 26.478078 54.010422 26.489625 54.044312 26.515625 54.070312 L 27.929688 55.484375 C 27.956688 55.511375 27.990531 55.521922 28.019531 55.544922 L 29.832031 57.357422 C 30.398031 57.924422 31.151125 58.236328 31.953125 58.236328 C 32.754125 58.236328 33.508219 57.924422 34.074219 57.357422 L 57.150391 34.263672 C 60.277391 31.136672 62 26.979641 62 22.556641 C 62 18.134641 60.277391 13.976609 57.150391 10.849609 C 50.695391 4.3946094 40.191328 4.3946094 33.736328 10.849609 L 31.943359 12.642578 L 30.150391 10.849609 C 26.922891 7.6221094 22.683109 6.0078125 18.443359 6.0078125 z M 18.443359 8.0078125 C 22.171359 8.0078125 25.898328 9.4266719 28.736328 12.263672 L 30.529297 14.056641 L 28.292969 16.292969 C 27.901969 16.683969 27.901969 17.316031 28.292969 17.707031 C 28.487969 17.902031 28.744 18 29 18 C 29.256 18 29.512031 17.902031 29.707031 17.707031 L 33.769531 13.644531 L 35.150391 12.263672 C 40.826391 6.5886719 50.060328 6.5886719 55.736328 12.263672 C 58.485328 15.012672 60 18.668641 60 22.556641 C 60 26.444641 58.485328 30.100609 55.736328 32.849609 L 32.660156 55.943359 C 32.282156 56.321359 31.626094 56.322359 31.246094 55.943359 L 8.1503906 32.849609 C 5.4013906 30.100609 3.8867188 26.444641 3.8867188 22.556641 C 3.8867188 18.668641 5.4013906 15.013672 8.1503906 12.263672 C 10.988391 9.4256719 14.715359 8.0078125 18.443359 8.0078125 z M 26 19 C 25.74425 19 25.488469 19.097469 25.292969 19.292969 L 23.292969 21.292969 C 22.901969 21.683969 22.901969 22.316031 23.292969 22.707031 C 23.487969 22.902031 23.744 23 24 23 C 24.256 23 24.512031 22.902031 24.707031 22.707031 L 26.707031 20.707031 C 27.098031 20.316031 27.098031 19.683969 26.707031 19.292969 C 26.511531 19.097469 26.25575 19 26 19 z M 46 19 C 45.74425 19 45.488469 19.097469 45.292969 19.292969 L 29 35.585938 L 21.707031 28.292969 C 21.316031 27.901969 20.683969 27.901969 20.292969 28.292969 C 19.901969 28.683969 19.901969 29.316031 20.292969 29.707031 L 28.292969 37.707031 C 28.487969 37.902031 28.744 38 29 38 C 29.256 38 29.512031 37.902031 29.707031 37.707031 L 46.707031 20.707031 C 47.098031 20.316031 47.098031 19.683969 46.707031 19.292969 C 46.511531 19.097469 46.25575 19 46 19 z M 51.970703 27.615234 C 51.714953 27.615234 51.459172 27.712703 51.263672 27.908203 C 50.872672 28.299203 50.872672 28.931266 51.263672 29.322266 L 52.677734 30.736328 C 52.872734 30.931328 53.128766 31.029297 53.384766 31.029297 C 53.640766 31.029297 53.896797 30.931328 54.091797 30.736328 C 54.482797 30.345328 54.482797 29.713266 54.091797 29.322266 L 52.677734 27.908203 C 52.482234 27.712703 52.226453 27.615234 51.970703 27.615234 z M 48.435547 31.150391 C 48.179797 31.150391 47.924016 31.248359 47.728516 31.443359 C 47.337516 31.833359 47.337516 32.466422 47.728516 32.857422 L 49.142578 34.271484 C 49.337578 34.466484 49.593609 34.564453 49.849609 34.564453 C 50.105609 34.564453 50.361641 34.466484 50.556641 34.271484 C 50.947641 33.880484 50.947641 33.246469 50.556641 32.855469 L 49.142578 31.443359 C 48.947078 31.248359 48.691297 31.150391 48.435547 31.150391 z M 44.898438 34.685547 C 44.642687 34.685547 44.386906 34.783016 44.191406 34.978516 C 43.800406 35.369516 43.800406 36.001578 44.191406 36.392578 L 45.605469 37.806641 C 45.800469 38.001641 46.0565 38.099609 46.3125 38.099609 C 46.5685 38.099609 46.824531 38.001641 47.019531 37.806641 C 47.410531 37.415641 47.410531 36.783578 47.019531 36.392578 L 45.605469 34.978516 C 45.409969 34.783016 45.154188 34.685547 44.898438 34.685547 z M 41.363281 38.222656 C 41.107531 38.222656 40.85175 38.320125 40.65625 38.515625 C 40.26525 38.905625 40.26525 39.538688 40.65625 39.929688 L 42.070312 41.34375 C 42.265313 41.53875 42.521344 41.636719 42.777344 41.636719 C 43.033344 41.636719 43.289375 41.53875 43.484375 41.34375 C 43.875375 40.95375 43.875375 40.320687 43.484375 39.929688 L 42.070312 38.515625 C 41.874813 38.320125 41.619031 38.222656 41.363281 38.222656 z M 37.828125 41.755859 C 37.572375 41.755859 37.316594 41.855281 37.121094 42.050781 C 36.730094 42.441781 36.730094 43.073844 37.121094 43.464844 L 38.535156 44.878906 C 38.730156 45.073906 38.986187 45.171875 39.242188 45.171875 C 39.498188 45.171875 39.754219 45.073906 39.949219 44.878906 C 40.340219 44.487906 40.340219 43.855844 39.949219 43.464844 L 38.535156 42.050781 C 38.339656 41.855281 38.083875 41.755859 37.828125 41.755859 z M 34.292969 45.292969 C 34.037219 45.292969 33.781438 45.390437 33.585938 45.585938 C 33.194938 45.976937 33.194937 46.609 33.585938 47 L 35 48.414062 C 35.195 48.609063 35.451031 48.707031 35.707031 48.707031 C 35.963031 48.707031 36.219062 48.609063 36.414062 48.414062 C 36.805062 48.023063 36.805063 47.391 36.414062 47 L 35 45.585938 C 34.8045 45.390438 34.548719 45.292969 34.292969 45.292969 z M 30.757812 48.828125 C 30.502062 48.828125 30.246281 48.925594 30.050781 49.121094 C 29.659781 49.512094 29.659781 50.144156 30.050781 50.535156 L 31.464844 51.949219 C 31.659844 52.144219 31.915875 52.242187 32.171875 52.242188 C 32.427875 52.242188 32.683906 52.144219 32.878906 51.949219 C 33.269906 51.558219 33.269906 50.926156 32.878906 50.535156 L 31.464844 49.121094 C 31.269344 48.925594 31.013563 48.828125 30.757812 48.828125 z"/>
</svg>
