<?xml version="1.0"?>
<svg xmlns="http://www.w3.org/2000/svg" width="50" height="50" viewBox="0 0 50 50">
    <path style="text-indent:0;text-align:start;line-height:normal;text-transform:none;block-progression:tb;-inkscape-font-specification:Bitstream Vera Sans" d="M 11.03125 1.0625 A 1.0001 1.0001 0 0 0 10.84375 1.09375 A 1.0001 1.0001 0 0 0 10.0625 2.09375 C 10.0625 2.481093 10.01691 4.6394398 10.75 6.8125 C 11.293582 8.423815 12.385414 10.124286 14.21875 11.09375 C 13.917693 11.333844 13.635511 11.602801 13.375 11.875 C 11.864216 11.114991 9.9268272 10.39468 7.875 10.375 C 5.7842331 10.35521 4.0104202 10.576054 2.6875 10.96875 C 2.0260399 11.165098 1.4862004 11.408115 1.03125 11.71875 C 0.57629964 12.029385 0.09375 12.487095 0.09375 13.21875 C 0.09375 14.293868 0.64065596 15.48477 1.71875 16.65625 C 2.796844 17.82773 4.5113865 18.833448 6.78125 18.84375 C 8.1790683 18.850174 9.4024712 18.518192 10.53125 18.0625 C 10.310475 19.111477 10.139235 20.231771 9.96875 21.4375 A 1.0001 1.0001 0 0 0 9.96875 21.5625 C 9.96875 26.294109 11.556173 29.826245 13.09375 32.4375 C 13.862539 33.743127 14.593338 34.827617 15.125 35.71875 C 15.644965 36.590278 15.925429 37.247673 15.9375 37.625 A 1.0001 1.0001 0 0 0 15.875 37.75 C 15.801745 37.898819 15.667985 38.209481 15.5 38.75 C 15.234761 39.603451 15 40.919134 15 43.09375 C 15 44.830415 16.100712 46.363927 17.84375 47.375 C 19.586788 48.386073 22.000138 48.96875 25 48.96875 C 27.99992 48.96875 30.413253 48.386191 32.15625 47.375 C 33.899247 46.363809 35 44.830069 35 43.09375 C 35 40.919134 34.765233 39.603575 34.5 38.75 C 34.345281 38.252081 34.23196 37.947495 34.15625 37.78125 A 1.0001 1.0001 0 0 0 34.0625 37.65625 C 34.0625 37.639065 34.057272 37.626163 34.0625 37.625 C 34.074681 37.247273 34.354887 36.590438 34.875 35.71875 C 35.406813 34.827453 36.137396 33.743193 36.90625 32.4375 C 38.443957 29.826115 40.03125 26.294109 40.03125 21.5625 A 1.0001 1.0001 0 0 0 40.03125 21.4375 C 39.860765 20.231989 39.689527 19.111519 39.46875 18.0625 C 40.597529 18.518192 41.820932 18.850175 43.21875 18.84375 C 45.488613 18.83345 47.203156 17.82773 48.28125 16.65625 C 49.359344 15.48477 49.90625 14.293868 49.90625 13.21875 C 49.90625 12.487095 49.4237 12.029385 48.96875 11.71875 C 48.5138 11.408115 47.97396 11.165098 47.3125 10.96875 C 45.98958 10.576054 44.215767 10.355212 42.125 10.375 C 40.073173 10.394679 38.135784 11.114991 36.625 11.875 C 36.364485 11.602825 36.082308 11.333844 35.78125 11.09375 C 37.614586 10.124286 38.706418 8.423815 39.25 6.8125 C 39.983089 4.6394398 39.9375 2.481093 39.9375 2.09375 A 1.0001 1.0001 0 0 0 38.8125 1.09375 A 1.0001 1.0001 0 0 0 38.0625 1.59375 C 36.784414 3.9589166 35.51871 4.9737443 34.125 5.5 C 32.844908 5.9833544 31.335196 6.038506 29.53125 6.03125 C 29.493709 5.9663509 29.443675 5.9085998 29.40625 5.84375 C 29.005343 5.1490638 28.635937 4.4051832 27.9375 3.8125 C 27.239063 3.2198168 26.241188 2.875 25 2.875 C 23.758773 2.875 22.760931 3.2197135 22.0625 3.8125 C 21.364069 4.4052865 20.994709 5.1489583 20.59375 5.84375 C 20.55632 5.9086097 20.506293 5.9663428 20.46875 6.03125 C 18.664804 6.038506 17.155092 5.9833544 15.875 5.5 C 14.48129 4.9737443 13.215586 3.9589166 11.9375 1.59375 A 1.0001 1.0001 0 0 0 11.03125 1.0625 z M 25 4.875 C 25.914812 4.875 26.290062 5.059527 26.625 5.34375 C 26.959938 5.627973 27.282407 6.1418112 27.6875 6.84375 C 28.469555 8.1988818 29.682703 10.146775 32.6875 11.59375 A 1.0001 1.0001 0 0 0 33.15625 11.8125 C 34.813174 12.593546 35.778938 13.655188 36.5 15.21875 C 37.227422 16.796105 37.654142 18.933653 38.03125 21.5625 C 38.03125 25.852891 36.635543 28.947135 35.1875 31.40625 C 34.463479 32.635807 33.744281 33.701985 33.15625 34.6875 C 32.96024 35.016005 32.786996 35.334762 32.625 35.65625 C 32.562137 35.605927 32.499787 35.544834 32.4375 35.5 C 31.869297 35.091015 31.397594 34.87243 31.0625 34.5625 C 30.727406 34.25257 30.452316 33.847959 30.1875 32.90625 C 29.937032 32.015565 29.768999 30.571138 29.75 28.53125 C 30.018477 27.95816 30.673247 27.408373 31.59375 26.90625 C 32.563823 26.377087 33.707108 26.027802 34.4375 25 C 34.692617 24.640345 34.693617 24.438504 34.75 24.15625 C 34.80638 23.873996 34.8459 23.543631 34.875 23.1875 C 34.93319 22.475237 34.95497 21.627068 34.90625 20.75 C 34.85753 19.872932 34.740436 18.975068 34.53125 18.1875 C 34.322064 17.399932 34.063029 16.642579 33.28125 16.15625 C 31.035042 14.760538 27.840061 13.76325 25.1875 13.71875 C 25.12587 13.717716 25.061021 13.71875 25 13.71875 C 24.969489 13.71875 24.936915 13.718491 24.90625 13.71875 A 1.001098 1.001098 0 0 0 24.78125 13.71875 C 22.134771 13.770407 18.95626 14.765943 16.71875 16.15625 C 15.936702 16.642403 15.678092 17.399799 15.46875 18.1875 C 15.259408 18.975201 15.142475 19.872825 15.09375 20.75 C 15.04503 21.627175 15.06666 22.475181 15.125 23.1875 C 15.15417 23.54366 15.19347 23.873924 15.25 24.15625 C 15.30653 24.438576 15.3062 24.639986 15.5625 25 C 16.292892 26.027802 17.436177 26.377087 18.40625 26.90625 C 19.326753 27.408373 19.981523 27.95816 20.25 28.53125 C 20.231 30.571138 20.062968 32.015565 19.8125 32.90625 C 19.547684 33.847959 19.272594 34.25257 18.9375 34.5625 C 18.602406 34.87243 18.130703 35.091015 17.5625 35.5 C 17.500213 35.544834 17.437863 35.605259 17.375 35.65625 C 17.212963 35.334757 17.039717 35.015966 16.84375 34.6875 C 16.255849 33.702102 15.536461 32.635748 14.8125 31.40625 C 13.364577 28.947255 11.96875 25.852891 11.96875 21.5625 C 12.345859 18.933175 12.772592 16.796073 13.5 15.21875 C 14.228481 13.6391 15.217875 12.595537 16.90625 11.8125 A 1.0001 1.0001 0 0 0 17.34375 11.5625 C 20.320453 10.117494 21.53368 8.1933102 22.3125 6.84375 C 22.717666 6.1416667 23.040025 5.6280572 23.375 5.34375 C 23.709975 5.0594428 24.085227 4.875 25 4.875 z M 12.53125 5.71875 C 13.351729 6.4892117 14.239101 7.0286906 15.15625 7.375 C 16.422302 7.8530529 17.724241 7.9652286 19.0625 8 C 18.464633 8.6075819 17.637701 9.2121263 16.4375 9.78125 C 14.209856 9.3551962 13.19847 7.8561592 12.625 6.15625 C 12.57274 6.0013277 12.57441 5.8733371 12.53125 5.71875 z M 37.46875 5.71875 C 37.42559 5.8733371 37.42726 6.0013277 37.375 6.15625 C 36.80153 7.8561592 35.790144 9.3551962 33.5625 9.78125 C 32.362484 9.2121234 31.535428 8.607608 30.9375 8 C 32.275759 7.9652286 33.577698 7.8530527 34.84375 7.375 C 35.760899 7.0286906 36.648271 6.4892117 37.46875 5.71875 z M 7.84375 12.375 C 9.312735 12.38909 10.876539 12.905016 12.15625 13.5 C 11.990475 13.781671 11.826542 14.073499 11.6875 14.375 C 11.51606 14.746754 11.358946 15.130602 11.21875 15.53125 C 9.7746129 16.267525 8.3886304 16.851138 6.78125 16.84375 C 5.0851135 16.836052 3.959406 16.12002 3.1875 15.28125 C 2.4757587 14.507857 2.233992 13.611709 2.1875 13.375 C 2.3797867 13.247596 2.7333641 13.059608 3.25 12.90625 C 4.3088298 12.591946 5.9195169 12.356788 7.84375 12.375 z M 42.15625 12.375 C 44.080483 12.35679 45.69117 12.591946 46.75 12.90625 C 47.266636 13.059608 47.620213 13.247596 47.8125 13.375 C 47.76601 13.611709 47.524241 14.507857 46.8125 15.28125 C 46.040594 16.12002 44.914887 16.836052 43.21875 16.84375 C 41.611369 16.851178 40.225387 16.26753 38.78125 15.53125 C 38.641055 15.130579 38.483937 14.746748 38.3125 14.375 C 38.17346 14.073504 38.009527 13.78165 37.84375 13.5 C 39.123461 12.905016 40.687265 12.389089 42.15625 12.375 z M 24.84375 15.71875 A 1.001098 1.001098 0 0 0 25 15.71875 C 25.02969 15.71875 25.063654 15.718376 25.09375 15.71875 C 27.233559 15.745366 30.380688 16.713477 32.25 17.875 C 32.17472 17.82817 32.439374 18.137536 32.59375 18.71875 C 32.748126 19.299964 32.862722 20.060193 32.90625 20.84375 C 32.94978 21.627307 32.92425 22.428482 32.875 23.03125 C 32.85038 23.332634 32.81508 23.580656 32.78125 23.75 C 32.770255 23.805037 32.765058 23.839737 32.75 23.875 C 32.570031 24.077685 31.685111 24.595019 30.65625 25.15625 C 29.590073 25.737837 28.31987 26.484406 27.78125 27.90625 A 1.0001 1.0001 0 0 0 27.71875 28.28125 C 27.71875 30.63021 27.908566 32.254584 28.25 33.46875 C 28.591434 34.682916 29.128344 35.48518 29.71875 36.03125 C 30.309156 36.57732 30.860453 36.84461 31.25 37.125 C 31.59781 37.375348 31.869743 37.608356 32.125 38.125 C 32.224768 38.578506 32.441617 38.854153 32.59375 39.34375 C 32.786742 39.96484 32.988471 41.021894 33 42.9375 C 32.548077 42.754145 31.818355 42.537414 30.96875 42.625 C 30.5091 42.67239 30.01174 42.811109 29.53125 43.09375 C 28.756454 43.549342 28.327004 44.288602 28.15625 44.96875 C 27.99182 45.623707 27.999229 46.224303 28 46.71875 C 27.112674 46.875269 26.106599 46.96875 25 46.96875 C 23.893378 46.96875 22.887329 46.875286 22 46.71875 C 22.000785 46.224312 22.008378 45.623836 21.84375 44.96875 C 21.672793 44.288468 21.243991 43.549177 20.46875 43.09375 C 19.98826 42.811109 19.4909 42.672386 19.03125 42.625 C 18.181645 42.537414 17.451923 42.754145 17 42.9375 C 17.011529 41.021887 17.213264 39.964718 17.40625 39.34375 C 17.555321 38.864088 17.772171 38.593222 17.875 38.15625 C 18.130257 37.634268 18.40219 37.375348 18.75 37.125 C 19.139547 36.84461 19.690844 36.57732 20.28125 36.03125 C 20.871656 35.48518 21.408566 34.682916 21.75 33.46875 C 22.091434 32.254584 22.28125 30.63021 22.28125 28.28125 A 1.0001 1.0001 0 0 0 22.21875 27.90625 C 21.68013 26.484406 20.409927 25.737837 19.34375 25.15625 C 18.314889 24.595019 17.429969 24.077685 17.25 23.875 C 17.234841 23.839672 17.229758 23.80497 17.21875 23.75 C 17.18488 23.580865 17.14968 23.332559 17.125 23.03125 C 17.07565 22.428632 17.05023 21.627325 17.09375 20.84375 C 17.13727 20.060175 17.251779 19.299986 17.40625 18.71875 C 17.560721 18.137514 17.825048 17.828347 17.75 17.875 C 19.601784 16.724368 22.705416 15.762532 24.84375 15.71875 z M 18.8125 44.625 C 19.032885 44.637278 19.24649 44.700141 19.4375 44.8125 C 19.731259 44.985073 19.823957 45.141282 19.90625 45.46875 C 19.954539 45.660906 19.957245 45.917513 19.96875 46.1875 C 19.543798 46.028515 19.174178 45.847919 18.84375 45.65625 C 18.381151 45.387913 18.028583 45.104986 17.75 44.8125 C 18.008431 44.727724 18.413298 44.602759 18.8125 44.625 z M 31.1875 44.625 C 31.586702 44.602759 31.991569 44.727724 32.25 44.8125 C 31.971418 45.105061 31.618864 45.387867 31.15625 45.65625 C 30.825812 45.847952 30.456209 46.028509 30.03125 46.1875 C 30.042763 45.917537 30.045486 45.660984 30.09375 45.46875 C 30.176 45.141148 30.269296 44.984908 30.5625 44.8125 C 30.75351 44.700141 30.967115 44.637278 31.1875 44.625 z" overflow="visible" enable-background="accumulate" font-family="Bitstream Vera Sans"/>
</svg>
