<?xml version="1.0"?>
<svg xmlns="http://www.w3.org/2000/svg" viewBox="0 0 50 50" enable-background="new 0 0 50 50">
    <path d="M 37.90625 -0.03125 A 1.0001 1.0001 0 0 0 37.78125 0 A 1.0001 1.0001 0 0 0 37.28125 1.71875 L 38.5625 3 L 31 10.5625 L 29.9375 9.53125 A 1.0001 1.0001 0 0 0 29.75 9.28125 L 29.59375 9.15625 A 1.0001 1.0001 0 0 0 29.5 9.09375 L 26.71875 6.28125 A 1.0001 1.0001 0 0 0 25.90625 5.96875 A 1.0001 1.0001 0 0 0 25.78125 6 A 1.0001 1.0001 0 0 0 25.28125 7.71875 L 27.5625 10 L 6.28125 31.28125 A 1.0001 1.0001 0 0 0 6.03125 32.25 L 7.78125 39.21875 L 1 46 L 1 50 L 9.78125 41.21875 L 16.75 42.96875 A 1.0001 1.0001 0 0 0 17.71875 42.71875 L 39 21.4375 L 41.28125 23.71875 A 1.016466 1.016466 0 1 0 42.71875 22.28125 L 39.84375 19.40625 A 1.016466 1.016466 0 0 0 39.53125 19.125 L 38.4375 18 L 46 10.4375 L 47.28125 11.71875 A 1.016466 1.016466 0 1 0 48.71875 10.28125 L 38.71875 0.28125 A 1.0001 1.0001 0 0 0 37.90625 -0.03125 z M 40 4.4375 L 44.5625 9 L 37 16.5625 L 32.4375 12 L 40 4.4375 z M 29 11.4375 L 37.5625 20 L 16.6875 40.875 L 9.8125 39.1875 L 8.125 32.3125 L 9.5 30.9375 A 1.0001 1.0001 0 0 0 9.59375 31 L 13.28125 34.71875 A 1.016466 1.016466 0 1 0 14.71875 33.28125 L 11 29.59375 A 1.0001 1.0001 0 0 0 10.9375 29.53125 L 13.5 26.9375 A 1.0001 1.0001 0 0 0 13.53125 26.9375 A 1.0001 1.0001 0 0 0 13.59375 27 L 15.28125 28.71875 A 1.016466 1.016466 0 1 0 16.71875 27.28125 L 15 25.59375 A 1.0001 1.0001 0 0 0 14.9375 25.53125 L 17.53125 22.9375 A 1.0001 1.0001 0 0 0 17.59375 23 L 21.28125 26.71875 A 1.016466 1.016466 0 1 0 22.71875 25.28125 L 19 21.59375 A 1.0001 1.0001 0 0 0 18.9375 21.53125 L 21.53125 18.9375 A 1.0001 1.0001 0 0 0 21.59375 19 L 23.28125 20.71875 A 1.016466 1.016466 0 1 0 24.71875 19.28125 L 23 17.59375 A 1.0001 1.0001 0 0 0 22.9375 17.53125 L 25.53125 14.9375 A 1.0001 1.0001 0 0 0 25.59375 15 L 29.28125 18.71875 A 1.016466 1.016466 0 1 0 30.71875 17.28125 L 27 13.59375 A 1.0001 1.0001 0 0 0 26.9375 13.53125 L 29 11.4375 z"/>
</svg>
