<?xml version="1.0"?>
<svg xmlns="http://www.w3.org/2000/svg" width="50" height="50" viewBox="0 0 50 50">
    <path d="M 19 5 C 17.354937 5 16 6.3549372 16 8 L 16 11 L 3 11 C 1.3549372 11 0 12.354937 0 14 L 0 19.6875 A 1.001098 1.001098 0 0 0 0 20.28125 L 0 42 C 0 43.645063 1.3549372 45 3 45 L 47 45 C 48.645063 45 50 43.645063 50 42 L 50 20.1875 A 1.0001 1.0001 0 0 0 50 19.78125 L 50 14 C 50 12.354937 48.645063 11 47 11 L 34 11 L 34 8 C 34 6.3549372 32.645063 5 31 5 L 19 5 z M 19 7 L 31 7 C 31.562937 7 32 7.4370628 32 8 L 32 11 L 18 11 L 18 8 C 18 7.4370628 18.437063 7 19 7 z M 3 13 L 47 13 C 47.562937 13 48 13.437063 48 14 L 48 19 L 44 19 C 44 17.908145 43.093084 17 42 17 L 38 17 C 36.906916 17 36 17.908145 36 19 L 14 19 C 14 17.908145 13.093084 17 12 17 L 8 17 C 6.9069156 17 6 17.908145 6 19 L 2 19 L 2 14 C 2 13.437063 2.4370628 13 3 13 z M 8 19 L 12 19 L 12 19.53125 A 1.0043849 1.0043849 0 0 0 12 20.40625 L 12 21 L 8 21 L 8 20.1875 A 1.0001 1.0001 0 0 0 8 19.78125 L 8 19 z M 38 19 L 42 19 L 42 19.53125 A 1.0043849 1.0043849 0 0 0 42 20.40625 L 42 21 L 38 21 L 38 20.1875 A 1.0001 1.0001 0 0 0 38 19.78125 L 38 19 z M 2 21 L 6 21 C 6 22.091855 6.9069156 23 8 23 L 12 23 C 13.093084 23 14 22.091855 14 21 L 36 21 C 36 22.091855 36.906916 23 38 23 L 42 23 C 43.093084 23 44 22.091855 44 21 L 48 21 L 48 42 C 48 42.562937 47.562937 43 47 43 L 3 43 C 2.4370628 43 2 42.562937 2 42 L 2 21 z M 23 25 L 23 29 L 19 29 L 19 33 L 23 33 L 23 37 L 27 37 L 27 33 L 31 33 L 31 29 L 27 29 L 27 25 L 23 25 z"/>
</svg>
