<?xml version="1.0"?>
<svg xmlns="http://www.w3.org/2000/svg" width="50" height="50" viewBox="0 0 50 50">
    <path style="text-indent:0;text-align:start;line-height:normal;text-transform:none;block-progression:tb;-inkscape-font-specification:Bitstream Vera Sans" d="M 6.75 2 C 6.6502242 2.0167554 6.5316849 2.0670215 6.375 2.15625 C 6.2183151 2.2454784 6.0377124 2.4263102 5.9375 2.65625 C 5.8372876 2.8861898 5.8153978 3.1250983 5.84375 3.28125 C 5.9571588 3.9058567 6.1575468 3.8944273 6.3125 4.0625 C 6.6224064 4.3986453 7.0641663 4.8165657 7.65625 5.4375 C 8.8404174 6.6793685 10.582899 8.6969007 12.40625 11.9375 C 15.11103 16.744642 17.979089 24.219218 19.28125 35.59375 C 17.71454 31.967474 15.638216 28.952604 13.5 26.53125 C 11.31311 24.054777 9.0697324 22.215356 7.21875 20.96875 C 6.2932588 20.345447 5.4671729 19.857973 4.78125 19.53125 C 4.0953271 19.204527 3.6489491 19 3 19 C 2.867853 19 2.7276027 19.0043 2.5 19.09375 C 2.2723973 19.18324 1.9062515 19.457476 1.8125 19.8125 C 1.718749 20.167524 1.840822 20.409756 1.90625 20.5625 C 1.971678 20.715244 2.0268468 20.81422 2.09375 20.90625 C 2.3613628 21.274371 2.6918199 21.611158 3.15625 22.09375 C 4.0851102 23.058933 5.4846055 24.530078 6.9375 26.6875 C 9.8432891 31.002344 13 38.00157 13 48.9375 A 1.0001 1.0001 0 1 0 15 48.9375 C 15 37.61243 11.686461 30.154906 8.59375 25.5625 C 7.722444 24.268687 7.0923225 23.675032 6.34375 22.8125 C 8.0137901 23.964409 10.026632 25.640323 12 27.875 C 16.12772 32.549303 20 39.522287 20 48.9375 A 1.0001 1.0001 0 0 0 20.03125 49.125 A 1.0001 1.0001 0 0 0 20.125 49.40625 A 1.0001 1.0001 0 0 0 20.28125 49.65625 A 1.0001 1.0001 0 0 0 20.4375 49.78125 A 1.0001 1.0001 0 0 0 20.53125 49.84375 A 1.0001 1.0001 0 0 0 20.8125 49.9375 A 1.0001 1.0001 0 0 0 21.21875 49.9375 A 1.0001 1.0001 0 0 0 21.5 49.8125 A 1.0001 1.0001 0 0 0 21.5625 49.78125 A 1.0001 1.0001 0 0 0 21.71875 49.625 A 1.0001 1.0001 0 0 0 21.90625 49.40625 A 1.0001 1.0001 0 0 0 22 49.09375 A 1.0001 1.0001 0 0 0 22 48.9375 C 22 29.439986 17.988547 17.779801 14.15625 10.96875 C 13.248841 9.3560337 12.358858 8.0419873 11.53125 6.9375 C 13.324255 8.4354985 15.342514 10.42432 17.40625 13.34375 C 21.753189 19.493075 25.933758 29.089206 26.8125 43.375 A 1.0001 1.0001 0 0 0 26.8125 43.5 C 26.813115 43.510241 26.811888 43.521004 26.8125 43.53125 A 1.0001 1.0001 0 0 0 26.84375 43.59375 C 26.944982 45.310595 27 47.083468 27 48.9375 A 1.0001 1.0001 0 1 0 29 48.9375 C 29 47.026753 28.918672 45.210264 28.8125 43.4375 A 1.0001 1.0001 0 0 0 28.8125 43.25 C 28.812816 43.239284 28.81218 43.229459 28.8125 43.21875 C 29.227871 29.316908 33.084255 21.529936 36.5625 17.1875 C 38.302962 15.01461 39.957472 13.68692 41.09375 12.90625 C 41.661889 12.515915 42.073481 12.285758 42.375 12.09375 C 42.525759 11.99775 42.60504 12.07984 42.90625 11.65625 C 42.98155 11.550352 43.101013 11.337632 43.09375 11 C 43.08645 10.662368 42.847094 10.316147 42.65625 10.1875 C 42.274562 9.9302062 42.141938 10.004593 42.03125 10 C 41.504863 9.978275 40.629734 10.0739 39.28125 10.46875 C 37.932766 10.863605 36.210127 11.579621 34.40625 12.84375 C 31.255495 15.051749 27.883529 18.959017 25.625 25.625 C 23.811917 20.045384 21.453149 15.613599 19.03125 12.1875 C 16.465274 8.5575847 13.828409 6.0585958 11.6875 4.4375 C 10.617045 3.6269521 9.6732139 3.0511114 8.90625 2.65625 C 8.1392861 2.2613886 7.707815 2 7 2 C 6.930788 2 6.8497758 1.9832446 6.75 2 z M 37.0625 13.75 C 36.39569 14.398096 35.711041 15.049797 35 15.9375 C 32.130068 19.520484 29.164181 25.189125 27.71875 34 C 27.408497 32.298776 27.026231 30.699511 26.625 29.15625 C 26.627517 29.146307 26.622478 29.134931 26.625 29.125 C 28.701058 20.94855 32.352153 16.71851 35.5625 14.46875 C 36.123383 14.075692 36.536293 14.030134 37.0625 13.75 z M 49 19 C 48.351051 19 47.911554 19.233051 47.25 19.5625 C 46.588446 19.891949 45.816919 20.343566 44.9375 20.96875 C 43.178663 22.219117 41.028361 24.084416 38.96875 26.5625 C 34.849528 31.518668 31 38.988912 31 48.9375 A 1.0001 1.0001 0 1 0 33 48.9375 C 33 39.505088 36.648972 32.514832 40.53125 27.84375 C 42.472389 25.508209 44.47815 23.773539 46.09375 22.625 C 46.1169 22.60854 46.13326 22.60996 46.15625 22.59375 C 45.42966 23.496431 44.784201 24.171521 43.90625 25.59375 C 41.073393 30.182813 38 37.627403 38 48.9375 A 1.0001 1.0001 0 1 0 40 48.9375 C 40 37.986597 42.928107 30.974437 45.59375 26.65625 C 46.926572 24.497157 48.190779 23.032843 49.03125 22.0625 C 49.451485 21.577329 49.757886 21.243205 50 20.84375 C 50.121057 20.644022 50.411287 20.358371 50.15625 19.71875 C 50.028731 19.39894 49.713492 19.173253 49.5 19.09375 C 49.286508 19.014247 49.132147 19 49 19 z" overflow="visible" enable-background="accumulate" font-family="Bitstream Vera Sans"/>
</svg>
